<mxfile host="app.diagrams.net" modified="2023-03-25T14:11:13.864Z" agent="Mozilla/5.0 (Windows NT 10.0; Win64; x64) AppleWebKit/537.36 (KHTML, like Gecko) Chrome/111.0.0.0 Safari/537.36" version="21.1.1" etag="H9N4LplV81v8CRCQoewN" type="github">
  <diagram name="第 1 页" id="loq3i0Z7yc12VJwGdKz-">
    <mxGraphModel>
      <root>
        <mxCell id="0" />
        <mxCell id="1" parent="0" />
      </root>
    </mxGraphModel>
  </diagram>
</mxfile>
